<svg width="27" height="28" viewBox="0 0 27 28" fill="none" xmlns="http://www.w3.org/2000/svg">
<path d="M25.9529 28L7.87769 27.9674C7.49533 27.9674 7.18248 27.6744 7.18248 27.3163V11.5581C7.18248 11.3953 7.252 11.2326 7.39104 11.1023L12.8136 6.05581C12.9527 5.92558 13.1265 5.86047 13.3003 5.86047H25.9529C26.3353 5.86047 26.6481 6.15349 26.6481 6.51163V27.3488C26.6481 27.5116 26.5786 27.6744 26.4396 27.8047C26.3005 27.9349 26.1267 28 25.9529 28ZM8.57289 11.8186V26.6651L25.2577 26.6977V7.16279H13.5783L8.57289 11.8186ZM12.0489 22.7907C11.6665 22.7907 11.3537 22.4977 11.3537 22.1395C11.3537 21.7814 11.6665 21.4884 12.0489 21.4884H17.6105C17.9929 21.4884 18.3057 21.7814 18.3057 22.1395C18.3057 22.4977 17.9929 22.7907 17.6105 22.7907H12.0489ZM5.09688 22.1395L0.92567 22.107C0.543309 22.107 0.230469 21.814 0.230469 21.4558V5.69767C0.230469 5.53488 0.299989 5.37209 0.439029 5.24186L5.8616 0.195349C6.00064 0.0651164 6.17444 0 6.34824 0H19.0009C19.3833 0 19.6961 0.293023 19.6961 0.651163V4.00465C19.6961 4.36279 19.3833 4.65581 19.0009 4.65581C18.6186 4.65581 18.3057 4.36279 18.3057 4.00465V1.30233H6.62632L1.62087 5.95814V20.8372H5.09688C5.47924 20.8372 5.79208 21.1302 5.79208 21.4884C5.79208 21.8465 5.47924 22.1395 5.09688 22.1395ZM12.0489 20.186C11.6665 20.186 11.3537 19.893 11.3537 19.5349C11.3537 19.1767 11.6665 18.8837 12.0489 18.8837H21.7817C22.1641 18.8837 22.4769 19.1767 22.4769 19.5349C22.4769 19.893 22.1641 20.186 21.7817 20.186H12.0489ZM12.0489 17.5814C11.6665 17.5814 11.3537 17.2884 11.3537 16.9302C11.3537 16.5721 11.6665 16.2791 12.0489 16.2791H21.7817C22.1641 16.2791 22.4769 16.5721 22.4769 16.9302C22.4769 17.2884 22.1641 17.5814 21.7817 17.5814H12.0489ZM11.3537 13.0233C10.9713 13.0233 10.6585 12.7302 10.6585 12.3721C10.6585 12.014 10.9713 11.7209 11.3537 11.7209H13.4393V9.76744C13.4393 9.4093 13.7521 9.11628 14.1345 9.11628C14.5169 9.11628 14.8297 9.4093 14.8297 9.76744V12.3721C14.8297 12.7302 14.5169 13.0233 14.1345 13.0233H11.3537ZM4.40168 7.16279C4.01932 7.16279 3.70648 6.86977 3.70648 6.51163C3.70648 6.15349 4.01932 5.86047 4.40168 5.86047H6.48728V3.90698C6.48728 3.54884 6.80012 3.25581 7.18248 3.25581C7.56485 3.25581 7.87769 3.54884 7.87769 3.90698V6.51163C7.87769 6.86977 7.56485 7.16279 7.18248 7.16279H4.40168Z" fill="#636366"/>
</svg>
