<svg width="31" height="35" viewBox="0 0 31 35" fill="none" xmlns="http://www.w3.org/2000/svg">
<path d="M28.0948 3.03292H24.2663V1.8117C24.2663 0.997549 23.4385 0.346191 22.4037 0.346191H8.43452C7.39977 0.346191 6.57196 0.997549 6.57196 1.8117V3.03292H2.74338C1.29472 3.03292 0.156494 3.92848 0.156494 5.06828V32.8306C0.156494 33.9704 1.29472 34.8659 2.74338 34.8659H28.1983C29.647 34.8659 30.7852 33.9704 30.7852 32.8306V5.06828C30.6817 4.00989 29.5435 3.03292 28.0948 3.03292ZM9.57274 2.78863H21.162V5.96372H9.57274V2.78863ZM27.5775 32.4235H3.15727V5.47536H6.46848V6.85936C6.46848 7.67351 7.29629 8.32487 8.33104 8.32487H22.3002C23.335 8.32487 24.1628 7.67351 24.1628 6.85936V5.47536H27.474V32.4235H27.5775Z" fill="white"/>
<path d="M8.84778 12.233H21.9892C22.817 12.233 23.5413 11.6631 23.5413 11.0117C23.5413 10.3604 22.817 9.79053 21.9892 9.79053H8.84778C8.01998 9.79053 7.29565 10.3604 7.29565 11.0117C7.29565 11.6631 8.01998 12.233 8.84778 12.233Z" fill="white"/>
<path d="M8.84778 15.5709H21.9892C22.817 15.5709 23.5413 15.001 23.5413 14.3496C23.5413 13.6983 22.817 13.1284 21.9892 13.1284H8.84778C8.01998 13.1284 7.29565 13.6983 7.29565 14.3496C7.29565 15.001 8.01998 15.5709 8.84778 15.5709Z" fill="white"/>
<path d="M17.7467 17.7688C17.7467 17.1175 17.0223 16.5476 16.1945 16.5476H8.84778C8.01998 16.5476 7.29565 17.1175 7.29565 17.7688C7.29565 18.4201 8.01998 18.99 8.84778 18.99H16.1945C17.0223 18.99 17.7467 18.4201 17.7467 17.7688Z" fill="white"/>
<path d="M24.163 23.3049L19.6101 27.2942L18.058 25.6659C17.5406 25.096 16.6093 25.0147 15.885 25.4218C15.1607 25.8288 15.0572 26.5615 15.5746 27.1314L18.2649 29.9809C18.5754 30.3065 18.9893 30.4694 19.4032 30.4694C19.4032 30.4694 19.4032 30.4694 19.5066 30.4694C19.9205 30.4694 20.3345 30.3066 20.6449 30.0624L26.4395 24.9332C26.9569 24.4447 26.9569 23.6305 26.336 23.2234C25.7152 22.7349 24.6804 22.8164 24.163 23.3049Z" fill="white"/>
</svg>
