<svg width="28" height="32" viewBox="0 0 28 32" fill="none" xmlns="http://www.w3.org/2000/svg">
<path opacity="0.4" fill-rule="evenodd" clip-rule="evenodd" d="M9.58234 5.47994H18.9686V3.26953H9.58234V5.47994ZM7.44721 3.36009V3.37109C6.7145 3.43849 5.98965 3.58567 5.28447 3.80712V3.79887C5.2635 3.80779 5.24377 3.81465 5.22483 3.82123L5.22482 3.82124C5.19995 3.82988 5.17646 3.83805 5.15339 3.84976C5.09703 3.86352 5.04198 3.88415 4.98955 3.91028C4.83488 3.96118 4.68021 4.0217 4.53472 4.0836C4.49605 4.09873 4.45738 4.11626 4.41871 4.1338C4.38005 4.15134 4.34138 4.16888 4.30271 4.18401C4.24963 4.20945 4.19426 4.2373 4.13889 4.26515L4.13887 4.26516L4.13886 4.26517C4.08348 4.29302 4.02811 4.32087 3.97502 4.34631L3.71287 4.49899C3.6644 4.524 3.61953 4.55332 3.57375 4.58324C3.54649 4.60106 3.51891 4.61909 3.49005 4.63654C3.09551 4.89376 2.72981 5.19499 2.3995 5.53749L2.37984 5.55812C2.33645 5.60927 2.29325 5.6589 2.25064 5.70786C2.17866 5.79055 2.10835 5.87132 2.04166 5.95426L2.022 5.97352C0.949804 7.47005 0.412395 9.31458 0.505459 11.1839V11.7767H2.62233V11.1784C2.62233 8.57319 3.44286 6.95149 5.26874 6.12069C5.96606 5.82221 6.7027 5.6379 7.45245 5.5705H7.47211V3.36972L7.44721 3.36009ZM26.4688 5.94638L26.478 5.96564C27.5488 7.46355 28.0836 9.30945 27.9893 11.1787V11.7771H25.8737V11.1636C25.9183 10.0605 25.6994 8.96283 25.2354 7.9711C24.7897 7.12243 24.0767 6.46357 23.2155 6.10594C22.53 5.80746 21.8038 5.62177 21.0632 5.55575V3.36597C21.7959 3.43474 22.5208 3.58054 23.2273 3.802V3.79099C23.267 3.80921 23.2973 3.82004 23.3492 3.83862L23.3584 3.84189C23.3825 3.85051 23.405 3.85914 23.4272 3.86767C23.4582 3.87953 23.4887 3.8912 23.5222 3.90241C23.6671 3.9505 23.8027 4.00718 23.9421 4.0655L23.9666 4.07572C24.0309 4.09858 24.0915 4.12693 24.1461 4.15248C24.1638 4.16075 24.1809 4.16873 24.1972 4.17613C24.3126 4.22702 24.4306 4.28754 24.5249 4.33844C24.5879 4.37147 24.6492 4.40682 24.7067 4.43998C24.7378 4.4579 24.7677 4.47519 24.7963 4.49112C24.8432 4.51735 24.8841 4.54542 24.9233 4.5724C24.952 4.59211 24.9798 4.61125 25.0086 4.62867C25.4044 4.88726 25.7741 5.18987 26.1083 5.52961L26.1201 5.55024C26.2433 5.67541 26.36 5.80746 26.4688 5.94638Z" fill="#00649D"/>
<path d="M21.1252 1.82433V6.69504C21.1252 7.30874 20.6329 7.80581 20.025 7.80581C19.4172 7.80581 18.9249 7.30874 18.9249 6.69504V1.83543C18.9193 1.22173 19.4089 0.7205 20.0168 0.716335C20.6247 0.712169 21.1211 1.20507 21.1252 1.81877V1.82433Z" fill="#00649D"/>
<path d="M9.57246 1.84104V6.69971C9.57246 7.31607 9.07953 7.81582 8.47158 7.81582C7.86363 7.81582 7.37207 7.31607 7.37207 6.69971V1.84104C7.37207 1.22468 7.86363 0.726318 8.47158 0.726318C9.07953 0.726318 9.57246 1.22468 9.57246 1.84104Z" fill="#00649D"/>
<path fill-rule="evenodd" clip-rule="evenodd" d="M0.495117 23.7604V11.7761H28V23.7604C28 28.9864 25.1144 31.6267 19.3957 31.6267H9.08629C3.3807 31.6267 0.495117 28.9864 0.495117 23.7604ZM6.69822 18.4403C6.69822 19.1654 7.26222 19.7536 7.95739 19.7536C8.66567 19.7536 9.22967 19.1517 9.21655 18.4266C9.21655 17.7015 8.65255 17.1133 7.9705 17.1133H7.95739C7.26222 17.1133 6.69822 17.7152 6.69822 18.4403ZM12.9806 18.4403C12.9806 19.1654 13.5577 19.7536 14.2529 19.7536C14.9481 19.7536 15.5121 19.1654 15.5121 18.4266C15.5121 17.7152 14.9481 17.127 14.2529 17.1133H14.2398C13.5446 17.127 12.9806 17.7152 12.9806 18.4403ZM20.5361 19.7536C19.8409 19.7536 19.2769 19.1654 19.2769 18.4403C19.2769 17.7152 19.8278 17.127 20.5361 17.127C21.2312 17.127 21.7952 17.7152 21.7952 18.4403C21.7952 19.1654 21.2312 19.7536 20.5361 19.7536ZM20.5357 25.3625C19.8405 25.3625 19.2765 24.7743 19.2634 24.0492C19.2634 23.3241 19.8274 22.7358 20.5226 22.7358H20.5357C21.2308 22.7358 21.7948 23.3241 21.7948 24.0492C21.7948 24.7743 21.2308 25.3625 20.5357 25.3625ZM14.2529 25.3625C13.5577 25.3625 12.9806 24.7743 12.9806 24.0492C12.9806 23.3241 13.5446 22.7358 14.2398 22.7222H14.2529C14.9481 22.7358 15.4989 23.3241 15.5121 24.0355C15.5121 24.7743 14.9481 25.3625 14.2529 25.3625ZM7.95761 25.3626C7.26245 25.3626 6.69845 24.7743 6.69845 24.0493C6.68533 23.3242 7.24933 22.7223 7.95761 22.7223C8.65278 22.7223 9.21678 23.3105 9.21678 24.0356C9.21678 24.7607 8.65278 25.3626 7.95761 25.3626Z" fill="#00649D"/>
</svg>
