<svg width="28" height="30" viewBox="0 0 28 30" fill="none" xmlns="http://www.w3.org/2000/svg">
<path d="M11.1624 11.5255C14.5341 11.5255 17.3257 8.9492 17.3257 5.76274C17.3257 2.57628 14.5704 0 11.1624 0C7.75441 0 4.99902 2.57628 4.99902 5.76274C4.99902 8.9492 7.75441 11.5255 11.1624 11.5255ZM11.1624 1.38984C13.7365 1.38984 15.8755 3.35595 15.8755 5.79664C15.8755 8.23733 13.7727 10.2034 11.1624 10.2034C8.55202 10.2034 6.44923 8.23733 6.44923 5.79664C6.44923 3.35595 8.55202 1.38984 11.1624 1.38984Z" fill="black"/>
<path d="M27.6574 17.5931C27.5123 17.4575 27.2948 17.3558 27.0773 17.3558H12.249C11.9227 17.3558 11.6326 17.5592 11.5601 17.8643L10.6537 20.949H7.06448V19.0168C7.06448 18.6439 6.73819 18.3388 6.33938 18.3388C5.94058 18.3388 5.61428 18.6439 5.61428 19.0168V21.627C5.61428 21.9999 5.94058 22.305 6.33938 22.305H10.2912L9.42106 25.2541H5.32424C3.72902 25.2541 2.42384 24.0338 2.42384 22.5423V18.5422C2.42384 16.1693 4.49037 14.2032 7.06448 14.2032H15.4757C16.7808 14.2032 18.3398 14.7456 18.6661 16.3049C18.7749 16.6778 19.1374 16.9151 19.5362 16.8473C19.935 16.7456 20.1888 16.4066 20.1163 16.0337C19.7175 14.1015 17.9047 12.8473 15.5119 12.8473H7.06448C3.72902 12.8473 0.973633 15.3897 0.973633 18.5422V22.5423C0.973633 24.7796 2.93141 26.6101 5.32424 26.6101H9.02226L8.29716 29.1525C8.22465 29.3559 8.2609 29.5592 8.40592 29.7287C8.55094 29.8982 8.76847 29.9999 8.986 29.9999H24.5757C24.902 29.9999 25.192 29.7626 25.2645 29.4575L27.8024 18.1694C27.8386 17.966 27.8024 17.7626 27.6574 17.5931ZM23.9956 28.644H9.96489L10.69 26.1016V26.0677L12.829 18.7117H26.2434L23.9956 28.644Z" fill="black"/>
</svg>
