<svg width="141" height="50" viewBox="0 0 141 50" fill="none" xmlns="http://www.w3.org/2000/svg">
<path d="M106.661 7.3206V3.01438C106.661 1.10051 107.585 0.287109 109.675 0.287109H113.564C115.654 0.287109 116.578 1.10051 116.578 3.01438V7.3206C116.578 9.23448 115.654 10.0479 113.564 10.0479H109.675C106.515 10.0479 106.661 7.3206 106.661 7.3206ZM109.238 8.61247C109.286 8.61247 109.383 8.61247 109.432 8.61247H113.807C113.856 8.61247 113.953 8.61247 114.001 8.61247C114.876 8.56462 115.168 8.27754 115.168 7.36845V2.96654C115.168 2.05744 114.925 1.77036 114.05 1.72252C114.001 1.72252 113.904 1.72252 113.856 1.72252H109.481C109.432 1.72252 109.335 1.72252 109.286 1.72252C108.411 1.77036 108.12 2.05744 108.12 2.96654V7.4163C108.071 8.27754 108.363 8.56462 109.238 8.61247Z" fill="#ED1C24"/>
<path d="M94.9458 10.0479V0.287109H96.4041V4.49764H103.453V0.287109H104.911V10.0479H103.453V5.8852H96.4041V10.0479H94.9458Z" fill="#ED1C24"/>
<path d="M128.293 0.287081H126.835V8.37321C126.835 8.37321 120.126 0.382775 120.126 0.334928C119.932 0.143541 119.689 0 119.397 0C118.814 0 118.376 0.478469 118.376 1.00478V10.0478H119.835V2.15311L126.203 9.71292C126.543 10.0957 126.786 10.2871 127.175 10.2871C127.224 10.2871 127.272 10.2871 127.321 10.2871C127.904 10.2871 128.342 9.80861 128.342 9.2823C128.293 9.23445 128.293 0.287081 128.293 0.287081Z" fill="#ED1C24"/>
<path d="M130.043 7.51198V2.82299C130.043 1.14835 130.918 0.239258 132.717 0.239258H140.008V1.67466H132.571C132.522 1.67466 132.425 1.67466 132.376 1.67466C131.696 1.77036 131.453 2.00959 131.453 2.7273V7.60768C131.453 7.65553 131.453 7.75122 131.501 7.79907C131.599 8.32538 131.793 8.56462 132.279 8.61246H132.668H137.529C138.161 8.61246 138.501 8.32538 138.599 7.75122C138.599 7.70337 138.599 7.65553 138.599 7.60768V4.49763H140.057V7.51198C140.057 8.08615 140.008 8.42108 139.814 8.756C139.328 9.71294 138.696 10.0957 137.529 10.0957H132.717C132.133 10.0957 131.793 10.0479 131.453 9.85648C130.432 9.33017 130.043 8.66031 130.043 7.51198Z" fill="#ED1C24"/>
<path d="M140.008 4.4502H135.439V5.83775H140.008V4.4502Z" fill="#ED1C24"/>
<path d="M130.043 19.3303V14.6413C130.043 12.9667 130.918 12.0576 132.717 12.0576H140.008V13.493H132.571C132.522 13.493 132.425 13.493 132.376 13.493C131.696 13.5887 131.453 13.828 131.453 14.5457V19.426C131.453 19.4739 131.453 19.5696 131.501 19.6174C131.599 20.1437 131.793 20.383 132.279 20.4308H132.668H137.529C138.161 20.4308 138.501 20.1437 138.599 19.5696C138.599 19.5217 138.599 19.4739 138.599 19.426V16.2681H140.057V19.2825C140.057 19.9045 140.008 20.1916 139.814 20.5265C139.328 21.4835 138.696 21.8662 137.529 21.8662H132.717C132.133 21.8662 131.793 21.8184 131.453 21.627C130.432 21.1485 130.043 20.4787 130.043 19.3303Z" fill="#ED1C24"/>
<path d="M140.008 16.2686H135.439V17.6561H140.008V16.2686Z" fill="#ED1C24"/>
<path d="M106.661 19.0911V14.7849C106.661 12.871 107.585 12.0576 109.675 12.0576H113.564C115.654 12.0576 116.578 12.871 116.578 14.7849V19.0911C116.578 21.005 115.654 21.8184 113.564 21.8184H109.675C106.515 21.8662 106.661 19.0911 106.661 19.0911ZM109.238 20.4308C109.286 20.4308 109.383 20.4308 109.432 20.4308H113.807C113.856 20.4308 113.953 20.4308 114.001 20.4308C114.876 20.383 115.168 20.0959 115.168 19.1868V14.737C115.168 13.828 114.925 13.5409 114.05 13.493C114.001 13.493 113.904 13.493 113.856 13.493H109.481C109.432 13.493 109.335 13.493 109.286 13.493C108.411 13.5409 108.12 13.828 108.12 14.737V19.1868C108.071 20.0959 108.363 20.383 109.238 20.4308Z" fill="#ED1C24"/>
<path d="M128.293 12.0576H126.835V20.1437C126.835 20.1437 120.126 12.1533 120.126 12.1054C119.932 11.914 119.689 11.7705 119.397 11.7705C118.814 11.7705 118.376 12.249 118.376 12.7753V21.8184H119.835V13.9236L126.154 21.5313C126.495 21.914 126.738 22.1054 127.126 22.1054C127.175 22.1054 127.224 22.1054 127.272 22.1054C127.856 22.1054 128.293 21.627 128.293 21.1007C128.293 21.005 128.293 12.0576 128.293 12.0576Z" fill="#ED1C24"/>
<path d="M96.4041 12.0576H94.9458V21.8662H96.4041V12.0576Z" fill="#ED1C24"/>
<path d="M101.8 17.2255C101.217 16.5078 100.731 16.1729 99.9042 16.1729H95.6265V17.6083H99.9042C100.245 17.6083 100.488 17.8953 100.633 18.0867L103.745 21.8666H105.64L101.8 17.2255Z" fill="#ED1C24"/>
<path d="M101.8 16.6031C101.217 17.3208 100.731 17.6557 99.9042 17.6557H95.6265V16.2203H99.9042C100.245 16.2203 100.488 15.9332 100.633 15.7418L103.696 12.0576H105.592L101.8 16.6031Z" fill="#ED1C24"/>
<g clip-path="url(#clip0_2963_16103)">
<path d="M124.752 41.4895C123.066 40.0704 122.25 39.5885 120.427 39.5885C118.686 39.5885 116.782 40.5524 115.286 41.4627C114.524 41.9447 113.762 42.3731 112.892 42.5605C112.212 42.6944 111.178 42.7479 110.661 41.9982C111.64 44.5419 113.735 44.4348 115.802 43.4173C117.761 42.4534 120.182 39.3743 123.61 41.6769C122.005 40.8201 120.073 41.2218 117.571 43.1763C114.85 45.2916 113.354 44.997 112.62 44.5686C114.878 46.6303 118.087 43.7654 120.318 42.8818C121.678 42.3463 123.12 42.4266 124.507 42.8283C125.867 43.2031 127.935 43.9796 129.839 42.507C128.125 43.096 126.194 42.6676 124.752 41.4895ZM122.25 44.408C121.406 44.4883 120.998 44.4883 120.209 44.8364C121.325 43.9796 122.141 43.3905 123.474 43.337C120.1 41.9715 117.979 46.9249 114.497 45.6397C116.537 47.0587 118.169 46.2555 119.393 45.6397C120.1 45.3719 120.917 45.2648 121.379 45.238C120.454 46.2019 119.203 47.0052 117.924 47.032C120.1 47.6478 121.597 46.4429 122.93 45.3719C123.8 44.6757 124.426 43.8725 125.84 43.9528C125.976 43.9528 126.167 43.9528 126.248 43.9528C126.194 43.9528 126.085 43.8993 126.058 43.8993C124.616 43.4709 123.283 43.6851 122.25 44.408Z" fill="url(#paint0_linear_2963_16103)"/>
<path d="M135.959 41.3556C135.334 41.1414 134.899 40.9808 134.164 41.0879C134.518 40.8469 135.606 40.713 136.259 40.8469C132.559 39.1065 130.764 44.5954 126.493 44.0331C128.343 44.9702 130.492 44.2205 132.015 43.0157C133.946 41.543 134.817 43.7654 136.476 42.5605C135.878 42.7747 135.388 42.3731 134.844 42.0518C134.327 41.7572 133.783 41.543 133.294 41.9179C134.436 40.7666 136.041 42.9353 137.374 41.4627C136.966 41.7037 136.395 41.5163 135.959 41.3556ZM139.333 36.7771C139.387 37.3661 138.87 37.5535 138.435 37.6606C137.428 37.8748 135.769 37.4197 135.225 37.018C136.776 36.0541 133.511 34.6618 132.206 35.3312C133.974 35.4115 133.511 36.5093 131.906 36.5629C130.655 36.6164 128.968 36.1345 128.234 34.9028C128.288 36.1345 129.05 37.0448 130.193 37.3126C129.023 37.6874 125.459 37.3393 124.344 35.3848C124.589 37.6339 127.091 39.2136 128.968 39.1065C127.527 40.1239 126.085 39.5617 124.453 38.9191C122.848 38.2765 121.379 37.4197 119.665 38.6513C121.868 38.089 123.337 39.4813 124.834 40.6862C126.357 41.8911 127.336 42.5069 129.186 42.266C131.362 41.9714 132.831 39.9633 135.334 39.9633C136.531 39.9633 137.156 40.6327 137.945 40.6327C138.272 40.6327 138.598 40.5256 138.897 40.231C137.945 40.5256 137.592 39.8294 138.081 39.9365C138.952 40.0972 139.605 39.4278 139.768 38.7852C139.931 38.2229 139.931 37.5535 139.333 36.7771ZM133.702 38.812C133.402 38.812 133.185 38.571 133.185 38.3032C133.185 38.0355 133.43 37.7945 133.702 37.7945C133.974 37.7945 134.219 38.0355 134.219 38.3032C134.219 38.5978 134.001 38.812 133.702 38.812Z" fill="url(#paint1_linear_2963_16103)"/>
<path d="M11.6428 32.8143C11.9148 41.0878 19.1235 53.458 29.515 49.0668C33.0513 47.5674 36.0981 43.2566 37.9207 42.1321C42.3819 39.3475 48.3665 44.167 52.9094 46.4429C58.1867 49.0936 64.3345 49.2007 69.5847 46.3625C75.5693 43.3102 81.3635 39.5349 87.2393 36.4022C89.3611 35.2776 91.5373 34.287 93.8224 33.564C101.602 30.9401 108.757 30.833 116.373 34.3137C116.7 34.4208 117.706 34.7957 118.713 35.2509C120.726 36.188 123.909 37.7677 124.398 37.9552C124.235 37.741 123.256 36.6967 121.977 35.9738C121.107 35.4651 120.155 34.876 119.257 34.3941C118.223 33.8586 117.326 33.4302 116.782 33.2427C109.736 30.2172 102.69 29.4942 95.0737 31.5827C91.9454 32.3056 88.9531 33.5105 86.0968 34.9296C80.221 37.8213 74.6172 41.1682 68.687 44.0599C64.3073 45.9341 59.0844 46.4696 54.4871 44.9702C48.5569 43.1763 41.9195 37.2322 36.3157 41.8643C26.3323 50.0575 17.437 49.2275 11.9148 32.7608C11.806 32.4663 11.6156 32.493 11.6428 32.8143Z" fill="url(#paint2_linear_2963_16103)"/>
<path d="M128.696 30.9401C117.543 30.4046 104.295 35.5187 98.8548 36.8039C94.5568 37.7945 91.1836 38.6781 88.8986 38.2765C84.927 37.5803 84.7366 35.1438 82.0979 33.1892C81.717 32.9215 81.3362 32.6537 80.8466 32.5198C79.024 31.7701 76.2221 32.7876 74.9708 32.6805C74.8892 32.6537 74.8347 32.6537 74.7531 32.6269C73.3386 31.9576 72.9578 30.6724 71.4616 30.1904C69.8294 29.6817 67.8436 30.1369 66.0755 30.7527C65.0962 31.1008 64.3345 31.2614 63.5184 31.074C63.2464 30.9669 62.9743 30.833 62.7023 30.6456C61.2606 29.762 59.9276 28.0216 59.3836 27.2719C59.0571 26.8435 58.3227 25.6119 56.9353 25.5315C55.8744 25.478 55.4664 25.7993 54.8135 26.3883C54.4055 26.7364 54.079 26.8167 53.9158 26.79C53.2357 26.7364 52.6645 26.4419 52.1748 27.0309C51.7668 27.5397 51.9844 28.5571 51.93 29.1729C51.7668 30.8062 50.7331 31.7166 49.917 32.2521C48.8289 32.975 47.9584 32.7073 46.435 33.5908C45.5646 34.0996 46.027 36.2148 43.878 35.4919C39.6072 34.2334 35.4451 33.4837 31.7727 34.2334C24.7 35.6793 18.797 40.0972 11.5883 41.0076C8.07913 41.4627 4.97801 40.954 0.788786 39.1065C0.299136 38.8923 -0.0545029 38.8923 0.135917 39.053C3.97151 42.4266 8.59598 43.6851 13.1116 43.1228C20.538 42.1589 26.7674 35.9471 34.1666 35.5187C39.2263 35.0635 41.2665 36.1077 45.1565 37.0716C45.1565 37.0716 45.9182 37.3126 46.2446 36.8306C46.5711 36.3755 46.5983 36.0006 46.9247 35.8132C48.4753 34.9028 49.2913 35.2241 50.3794 34.5012C51.2227 33.9389 52.1204 33.0553 52.3925 31.3953C52.5013 30.7795 52.3381 29.6549 52.6373 29.2533C53.0997 28.6642 53.6982 28.9587 54.3783 29.0123C54.5687 29.0391 54.8951 28.9587 55.2759 28.6107C55.9288 28.0216 56.3369 27.7539 57.3978 27.7539C58.8395 27.7539 59.5468 29.0658 59.846 29.4942C60.3901 30.244 61.7502 31.9843 63.192 32.8947C63.4912 33.0821 63.7632 33.216 64.008 33.3231C64.8241 33.5373 65.5858 33.3766 66.5651 33.0018C68.3061 32.3592 70.3191 31.9843 71.8696 32.4127C73.2842 32.8144 74.1275 34.4476 75.2428 34.876C75.3244 34.9028 75.3788 34.9028 75.4604 34.9028C76.6845 35.0367 79.5408 33.9925 81.3634 34.7689C81.8531 34.9028 82.2339 35.1706 82.6419 35.4651C84.6005 36.911 85.5798 38.1694 87.5384 38.9994C87.7289 39.053 87.9193 39.1601 88.1097 39.2136C92.3533 40.3382 96.0801 39.3207 100.351 38.4371C106.744 37.0984 119.611 31.9308 128.859 31.9576C135.497 31.9843 138.625 34.3138 139.278 36.3219C138.924 33.6979 136.068 31.315 128.696 30.9401Z" fill="url(#paint3_linear_2963_16103)"/>
<path d="M105.982 39.2402C99.8342 37.714 95.4274 34.0458 91.4286 30.2706C86.1512 25.2368 80.4658 20.337 73.0667 18.7305C69.0135 17.8469 64.7426 17.7666 60.5806 18.4627C55.2761 19.3463 50.1891 21.4883 45.5375 24.0855C44.7486 24.5139 43.9869 24.9423 43.198 25.3975C37.7847 28.4766 32.6977 31.6361 26.2779 31.5022C18.9603 31.3416 15.0703 21.3544 7.88881 23.0681C7.8072 23.0948 7.88881 23.2287 8.21525 23.2555C11.4252 23.5768 12.1868 24.7549 14.3631 26.7095C17.0833 29.146 19.8036 31.2345 23.9384 32.3055C31.7456 34.3136 38.6007 31.4219 44.8574 27.5127C46.7072 26.3346 55.5209 21.6757 60.2814 20.3905C64.797 19.1857 69.3943 18.9715 73.6923 19.9621C80.5474 21.5419 85.2535 26.9237 90.2316 31.4754C92.2174 33.2694 94.2576 35.0365 96.1074 36.4824C102.582 41.5429 108.267 39.267 110.552 41.6768C109.926 40.4183 108.485 39.8293 105.982 39.2402Z" fill="url(#paint4_linear_2963_16103)"/>
</g>
<defs>
<linearGradient id="paint0_linear_2963_16103" x1="110.67" y1="43.3771" x2="129.837" y2="43.3771" gradientUnits="userSpaceOnUse">
<stop offset="0.25" stop-color="#A3238E"/>
<stop offset="0.6" stop-color="#D80B8C"/>
</linearGradient>
<linearGradient id="paint1_linear_2963_16103" x1="119.669" y1="39.6577" x2="139.864" y2="39.6577" gradientUnits="userSpaceOnUse">
<stop offset="0.25" stop-color="#FAA61A"/>
<stop offset="0.6" stop-color="#ED1C24"/>
</linearGradient>
<linearGradient id="paint2_linear_2963_16103" x1="11.6297" y1="40.1824" x2="124.413" y2="40.1824" gradientUnits="userSpaceOnUse">
<stop offset="0.0411" stop-color="#A6CE39"/>
<stop offset="0.0934" stop-color="#A6CE39"/>
<stop offset="0.6" stop-color="#00A651"/>
</linearGradient>
<linearGradient id="paint3_linear_2963_16103" x1="0.012933" y1="34.4391" x2="139.255" y2="34.4391" gradientUnits="userSpaceOnUse">
<stop offset="0.25" stop-color="#FAA61A"/>
<stop offset="0.5899" stop-color="#ED1C24"/>
</linearGradient>
<linearGradient id="paint4_linear_2963_16103" x1="84.1016" y1="29.8406" x2="36.0695" y2="29.8406" gradientUnits="userSpaceOnUse">
<stop stop-color="#A3238E"/>
<stop offset="0.25" stop-color="#2E3192"/>
<stop offset="0.5" stop-color="#00AEEF"/>
</linearGradient>
<clipPath id="clip0_2963_16103">
<rect width="139.849" height="31.9695" fill="white" transform="matrix(1 0 0 -1 0 49.9775)"/>
</clipPath>
</defs>
</svg>
