<svg width="37" height="28" viewBox="0 0 37 28" fill="none" xmlns="http://www.w3.org/2000/svg">
<path d="M3.21739 28C1.44783 28 0 26.56 0 24.8V24C0 23.56 0.361957 23.2 0.804348 23.2H1.6087V8C1.6087 6.24 3.05652 4.8 4.82609 4.8H17.6957V3.2C17.6957 1.44 19.1435 0 20.913 0H33.7826C35.5522 0 37 1.44 37 3.2V11.2C37 12.96 35.5522 14.4 33.7826 14.4V23.2H34.587C35.0293 23.2 35.3913 23.56 35.3913 24V24.8C35.3913 26.56 33.9435 28 32.1739 28H28.1522C27.7098 28 27.3478 27.64 27.3478 27.2C27.3478 26.76 27.7098 26.4 28.1522 26.4H32.1739C33.0587 26.4 33.7826 25.68 33.7826 24.8H1.6087C1.6087 25.24 1.76957 25.64 2.0913 25.92C2.37283 26.24 2.81522 26.4 3.21739 26.4H23.3261C23.7685 26.4 24.1304 26.76 24.1304 27.2C24.1304 27.64 23.7685 28 23.3261 28H21.7174H3.21739ZM3.21739 8V23.2H32.1739V14.4H27.6696L23.8891 18.16C23.7283 18.32 23.5272 18.4 23.3261 18.4C23.2054 18.4 23.125 18.36 23.0043 18.32C22.7228 18.2 22.5217 17.92 22.5217 17.6V14.4H20.913C19.1435 14.4 17.6957 12.96 17.6957 11.2V6.4H4.82609C3.9413 6.4 3.21739 7.12 3.21739 8ZM19.3043 3.2V11.2C19.3043 12.08 20.0283 12.8 20.913 12.8H23.3261C23.7685 12.8 24.1304 13.16 24.1304 13.6V15.68L26.7848 13.04C26.9457 12.88 27.1467 12.8 27.3478 12.8H33.7826C34.6674 12.8 35.3913 12.08 35.3913 11.2V3.2C35.3913 2.32 34.6674 1.6 33.7826 1.6H20.913C20.0283 1.6 19.3043 2.32 19.3043 3.2Z" fill="#444444"/>
</svg>
