<svg width="36" height="27" viewBox="0 0 36 27" fill="none" xmlns="http://www.w3.org/2000/svg">
<g clip-path="url(#clip0_59_1473)">
<path d="M24.2201 23.6651C20.8988 23.6651 17.5763 23.6702 14.255 23.658C13.9172 23.657 13.761 23.7373 13.629 24.0045C12.8759 25.5398 11.1069 26.5223 9.1647 26.5142C7.21406 26.5061 5.46441 25.5235 4.71612 23.9832C4.58898 23.721 4.42915 23.654 4.11918 23.659C3.25949 23.6743 2.39859 23.6702 1.53769 23.6631C0.630785 23.655 0.00962996 23.1622 0.00599748 22.4611C0.002365 21.758 0.616255 21.2479 1.51711 21.2347C2.40707 21.2215 3.29824 21.2266 4.18941 21.2347C4.44126 21.2367 4.58172 21.191 4.69311 20.9665C5.48257 19.3672 7.21163 18.3653 9.20103 18.406C11.326 18.4487 12.8238 19.3306 13.6617 20.9665C13.8022 21.2398 13.9983 21.2327 14.2574 21.2327C20.8104 21.2317 27.3634 21.2317 33.9152 21.2327C34.0956 21.2327 34.2797 21.2276 34.4577 21.2469C35.2617 21.3343 35.7896 21.8637 35.7509 22.5312C35.7145 23.1663 35.1212 23.655 34.3209 23.6601C32.5397 23.6723 30.7574 23.6651 28.9763 23.6651C27.3913 23.6651 25.8051 23.6651 24.2201 23.6651ZM11.1008 22.4702C11.1081 21.569 10.2605 20.8405 9.19618 20.8323C8.12702 20.8242 7.26249 21.5395 7.25522 22.4387C7.24796 23.341 8.0907 24.0675 9.15865 24.0807C10.2169 24.0939 11.0935 23.3664 11.1008 22.4702Z" fill="white"/>
<path d="M24.175 5.83043C20.8682 5.83043 17.5614 5.83449 14.2559 5.82433C13.9241 5.82332 13.7594 5.89241 13.625 6.16675C12.8671 7.70609 11.1138 8.69777 9.15344 8.65611C7.07203 8.61141 5.57908 7.75994 4.7315 6.16065C4.5862 5.88631 4.42274 5.81824 4.09461 5.82433C3.21918 5.84161 2.34254 5.84262 1.46832 5.82433C0.735769 5.81011 0.150939 5.40063 0.0286458 4.86008C-0.099702 4.2921 0.219957 3.72717 0.837479 3.51075C1.06633 3.43048 1.33392 3.40508 1.58577 3.40101C2.4612 3.3878 3.33663 3.38983 4.21327 3.4C4.45543 3.40304 4.5753 3.34818 4.67944 3.14496C5.51975 1.49182 7.02965 0.60581 9.16676 0.555006C11.1404 0.508267 12.8937 1.52942 13.6662 3.12769C13.8006 3.40508 13.9968 3.39796 14.2571 3.39796C20.8246 3.39695 27.3921 3.39593 33.9609 3.39796C34.2164 3.39796 34.4803 3.3939 34.7249 3.44572C35.3509 3.57882 35.7699 4.08787 35.7529 4.64569C35.7372 5.18523 35.3037 5.65262 34.6777 5.77454C34.4597 5.81722 34.2297 5.82738 34.0045 5.82738C30.728 5.83043 27.4515 5.82941 24.175 5.82941V5.83043ZM7.25608 4.62232C7.26334 5.52053 8.12908 6.23686 9.19703 6.22873C10.2614 6.2206 11.1089 5.49208 11.1017 4.59083C11.0944 3.69465 10.2178 2.96817 9.1595 2.98036C8.09155 2.99255 7.24881 3.72006 7.25608 4.62232Z" fill="white"/>
<path d="M11.5453 12.3147C14.8823 12.3147 18.2206 12.3106 21.5576 12.3208C21.864 12.3208 21.9972 12.2456 22.1122 12.0068C22.8617 10.4583 24.5871 9.49002 26.5596 9.48393C28.5538 9.47681 30.2853 10.4421 31.0481 12.0119C31.1668 12.2558 31.3072 12.3269 31.6075 12.3208C32.4829 12.3035 33.3596 12.3096 34.235 12.3157C35.1213 12.3218 35.7534 12.8359 35.7522 13.535C35.7497 14.234 35.1177 14.7411 34.2253 14.7461C33.3341 14.7522 32.443 14.7522 31.5518 14.7441C31.3205 14.7421 31.1873 14.7746 31.0784 14.9869C30.2356 16.636 28.7463 17.5363 26.5922 17.5718C24.5762 17.6043 22.892 16.6289 22.0722 14.9748C21.9354 14.6974 21.7235 14.7482 21.4971 14.7482C14.9126 14.7461 8.32812 14.7482 1.74364 14.7451C1.51963 14.7451 1.28594 14.7451 1.07163 14.6974C0.335443 14.5348 -0.087136 13.977 0.0169952 13.3348C0.109018 12.7638 0.704745 12.3218 1.43851 12.3177C2.96415 12.3076 4.48858 12.3137 6.01423 12.3137C7.85711 12.3137 9.69878 12.3137 11.5417 12.3137L11.5453 12.3147ZM28.5029 13.536C28.5054 12.6276 27.6663 11.9205 26.5862 11.9184C25.5049 11.9164 24.661 12.6205 24.6586 13.5279C24.6561 14.4352 25.4964 15.1444 26.5753 15.1465C27.6566 15.1485 28.5005 14.4434 28.5029 13.537V13.536Z" fill="white"/>
</g>
<defs>
<clipPath id="clip0_59_1473">
<rect width="35.7533" height="25.9615" fill="white" transform="translate(0 0.553711)"/>
</clipPath>
</defs>
</svg>
