<svg width="69" height="76" viewBox="0 0 69 76" fill="none" xmlns="http://www.w3.org/2000/svg">
<path d="M36.7768 14.5417C36.7768 22.0827 30.743 28.175 23.2851 28.175C15.8273 28.175 9.79346 22.0827 9.79346 14.5417C9.79346 7.00064 15.8273 0.908325 23.2851 0.908325C30.743 0.908325 36.7768 7.00064 36.7768 14.5417ZM34.0435 14.6233C34.0435 8.60768 29.2456 3.75666 23.2851 3.75666C17.3246 3.75666 12.5268 8.60768 12.5268 14.6233C12.5268 20.639 17.3246 25.49 23.2851 25.49C29.2456 25.49 34.0435 20.639 34.0435 14.6233Z" fill="black" stroke="white" stroke-width="0.5"/>
<path d="M11.7993 53.0066V53.2566H12.0493H21.1834C21.9321 53.2566 22.5501 53.8772 22.5501 54.6399C22.5501 55.4026 21.9321 56.0233 21.1834 56.0233H10.4326C9.6839 56.0233 9.06592 55.4026 9.06592 54.6399V48.3516C9.06592 47.5889 9.6839 46.9683 10.4326 46.9683C11.1813 46.9683 11.7993 47.5889 11.7993 48.3516V53.0066Z" fill="black" stroke="white" stroke-width="0.5"/>
<mask id="path-3-inside-1_409_6520" fill="white">
<path d="M68.5516 64.7666C67.5816 59.7033 64.7525 55.2116 60.5491 52.19C55.6991 48.6783 49.3941 47.6983 43.4933 49.1683V45.9016C44.9483 46.7183 46.6458 47.2083 48.4241 47.2083C54.0825 47.2083 58.69 42.5533 58.69 36.8366C58.69 31.12 54.0825 26.465 48.4241 26.465C44.625 26.465 41.23 28.5883 39.4516 31.7733C37.6733 30.3033 35.41 29.4866 32.9041 29.4866H14.1508C6.6333 29.4866 0.570801 35.6933 0.570801 43.2066V57.09C0.570801 62.48 4.9358 66.89 10.2708 66.89H28.135C28.2158 67.4616 28.3775 67.9516 28.62 68.4416L29.2666 69.585C29.8325 70.565 30.7216 71.2183 31.7725 71.545C32.0958 71.6266 32.5 71.7083 32.8233 71.7083C33.5508 71.7083 34.2783 71.545 34.925 71.1366L38.2391 69.2583V73.9133C38.2391 74.8116 38.9666 75.5466 39.8558 75.5466C40.745 75.5466 41.4725 74.8116 41.4725 73.9133V67.38L44.7866 65.42C46.8075 64.2766 47.4541 61.6633 46.3225 59.7033L45.6758 58.56C45.595 58.3966 45.5141 58.2333 45.3525 58.1516C44.9483 55.375 44.5441 53.5783 44.14 52.3533C47.1308 51.6183 50.2025 51.6183 53.1125 52.3533C52.7083 53.4966 52.3041 55.13 51.9808 57.6616C51.7383 57.9066 51.415 58.2333 51.2533 58.56L50.6066 59.7033C49.475 61.745 50.1216 64.2766 52.1425 65.42L55.4566 67.38V73.9133C55.4566 74.8116 56.1841 75.5466 57.0733 75.5466C57.9625 75.5466 58.69 74.8116 58.69 73.9133V69.2583L62.0041 71.1366C62.6508 71.545 63.3783 71.7083 64.1058 71.7083C64.4291 71.7083 64.8333 71.6266 65.1566 71.545C66.2075 71.2183 67.0966 70.565 67.6625 69.585L68.3091 68.4416C69.0366 67.2983 69.0366 65.91 68.5516 64.7666ZM48.4241 29.7316C52.3041 29.7316 55.4566 32.9166 55.4566 36.8366C55.4566 40.7566 52.3041 43.9416 48.4241 43.9416C44.5441 43.9416 41.4725 40.7566 41.4725 36.9183C41.4725 35.3666 42.0383 33.8966 42.8466 32.6716C42.9275 32.59 42.9275 32.5083 43.0083 32.4266C43.0891 32.2633 43.2508 32.1816 43.3316 32.0183C44.5441 30.63 46.4033 29.7316 48.4241 29.7316ZM41.0683 53.415C41.1491 53.415 41.1491 53.415 41.23 53.3333C41.3916 54.0683 41.6341 55.2116 41.8766 56.4366C41.715 56.4366 41.4725 56.4366 41.3108 56.5183C41.1491 55.375 40.9875 54.3133 40.8258 53.4966C40.9066 53.4966 40.9875 53.415 41.0683 53.415ZM28.4583 63.7866H10.2708C6.71413 63.6233 3.80413 60.6833 3.80413 57.09V43.2066C3.80413 37.4083 8.49247 32.7533 14.1508 32.7533H32.985C35.0866 32.7533 37.0266 33.6516 38.4008 35.2033C38.32 35.775 38.2391 36.3466 38.2391 36.9183C38.2391 39.205 38.9666 41.41 40.26 43.125V50.3116C40.0983 50.3933 39.9366 50.475 39.775 50.5566C39.29 50.8016 38.7241 51.0466 38.2391 51.2916C38.2391 51.2916 38.1583 51.2916 38.1583 51.3733C33.2275 54.0683 29.7516 58.56 28.4583 63.7866ZM38.2391 58.07L32.7425 61.255C33.8741 58.9683 35.5716 56.9266 37.835 55.2933C37.9966 56.1916 38.0775 57.09 38.2391 58.07ZM43.2508 62.725L33.3891 68.36C33.1466 68.5233 32.9041 68.5233 32.6616 68.4416C32.4191 68.36 32.1766 68.1966 32.0958 68.0333L31.4491 66.89C31.2066 66.4816 31.3683 65.8283 31.7725 65.5833L41.6341 59.8666C41.7958 59.785 41.9575 59.785 42.1191 59.785C42.4425 59.785 42.7658 59.9483 42.9275 60.275L43.5741 61.4183C43.8166 61.8266 43.655 62.48 43.2508 62.725ZM59.4983 55.5383C61.3575 57.0083 62.8933 58.8866 63.9441 61.0916L59.0941 58.2333C59.2558 57.2533 59.3366 56.355 59.4983 55.5383ZM56.1841 53.415C56.3458 53.4966 56.4266 53.4966 56.5075 53.5783C56.3458 54.3133 56.1841 55.4566 56.0225 56.6C55.8608 56.5183 55.6991 56.5183 55.4566 56.5183C55.6991 55.2116 55.9416 54.15 56.1841 53.415ZM65.5608 66.89L64.9141 68.0333C64.7525 68.2783 64.5908 68.4416 64.3483 68.4416C64.1058 68.5233 63.8633 68.4416 63.6208 68.36L53.7591 62.6433C53.355 62.3983 53.1933 61.8266 53.4358 61.3366L54.0825 60.1933C54.2441 59.8666 54.5675 59.7033 54.8908 59.7033C55.0525 59.7033 55.2141 59.7033 55.3758 59.8666L65.2375 65.5833C65.3183 65.665 65.3991 65.7466 65.48 65.8283C65.48 65.91 65.48 65.9916 65.48 65.9916H65.5608C65.7225 66.2366 65.7225 66.5633 65.5608 66.89Z"/>
</mask>
<path d="M68.5516 64.7666C67.5816 59.7033 64.7525 55.2116 60.5491 52.19C55.6991 48.6783 49.3941 47.6983 43.4933 49.1683V45.9016C44.9483 46.7183 46.6458 47.2083 48.4241 47.2083C54.0825 47.2083 58.69 42.5533 58.69 36.8366C58.69 31.12 54.0825 26.465 48.4241 26.465C44.625 26.465 41.23 28.5883 39.4516 31.7733C37.6733 30.3033 35.41 29.4866 32.9041 29.4866H14.1508C6.6333 29.4866 0.570801 35.6933 0.570801 43.2066V57.09C0.570801 62.48 4.9358 66.89 10.2708 66.89H28.135C28.2158 67.4616 28.3775 67.9516 28.62 68.4416L29.2666 69.585C29.8325 70.565 30.7216 71.2183 31.7725 71.545C32.0958 71.6266 32.5 71.7083 32.8233 71.7083C33.5508 71.7083 34.2783 71.545 34.925 71.1366L38.2391 69.2583V73.9133C38.2391 74.8116 38.9666 75.5466 39.8558 75.5466C40.745 75.5466 41.4725 74.8116 41.4725 73.9133V67.38L44.7866 65.42C46.8075 64.2766 47.4541 61.6633 46.3225 59.7033L45.6758 58.56C45.595 58.3966 45.5141 58.2333 45.3525 58.1516C44.9483 55.375 44.5441 53.5783 44.14 52.3533C47.1308 51.6183 50.2025 51.6183 53.1125 52.3533C52.7083 53.4966 52.3041 55.13 51.9808 57.6616C51.7383 57.9066 51.415 58.2333 51.2533 58.56L50.6066 59.7033C49.475 61.745 50.1216 64.2766 52.1425 65.42L55.4566 67.38V73.9133C55.4566 74.8116 56.1841 75.5466 57.0733 75.5466C57.9625 75.5466 58.69 74.8116 58.69 73.9133V69.2583L62.0041 71.1366C62.6508 71.545 63.3783 71.7083 64.1058 71.7083C64.4291 71.7083 64.8333 71.6266 65.1566 71.545C66.2075 71.2183 67.0966 70.565 67.6625 69.585L68.3091 68.4416C69.0366 67.2983 69.0366 65.91 68.5516 64.7666ZM48.4241 29.7316C52.3041 29.7316 55.4566 32.9166 55.4566 36.8366C55.4566 40.7566 52.3041 43.9416 48.4241 43.9416C44.5441 43.9416 41.4725 40.7566 41.4725 36.9183C41.4725 35.3666 42.0383 33.8966 42.8466 32.6716C42.9275 32.59 42.9275 32.5083 43.0083 32.4266C43.0891 32.2633 43.2508 32.1816 43.3316 32.0183C44.5441 30.63 46.4033 29.7316 48.4241 29.7316ZM41.0683 53.415C41.1491 53.415 41.1491 53.415 41.23 53.3333C41.3916 54.0683 41.6341 55.2116 41.8766 56.4366C41.715 56.4366 41.4725 56.4366 41.3108 56.5183C41.1491 55.375 40.9875 54.3133 40.8258 53.4966C40.9066 53.4966 40.9875 53.415 41.0683 53.415ZM28.4583 63.7866H10.2708C6.71413 63.6233 3.80413 60.6833 3.80413 57.09V43.2066C3.80413 37.4083 8.49247 32.7533 14.1508 32.7533H32.985C35.0866 32.7533 37.0266 33.6516 38.4008 35.2033C38.32 35.775 38.2391 36.3466 38.2391 36.9183C38.2391 39.205 38.9666 41.41 40.26 43.125V50.3116C40.0983 50.3933 39.9366 50.475 39.775 50.5566C39.29 50.8016 38.7241 51.0466 38.2391 51.2916C38.2391 51.2916 38.1583 51.2916 38.1583 51.3733C33.2275 54.0683 29.7516 58.56 28.4583 63.7866ZM38.2391 58.07L32.7425 61.255C33.8741 58.9683 35.5716 56.9266 37.835 55.2933C37.9966 56.1916 38.0775 57.09 38.2391 58.07ZM43.2508 62.725L33.3891 68.36C33.1466 68.5233 32.9041 68.5233 32.6616 68.4416C32.4191 68.36 32.1766 68.1966 32.0958 68.0333L31.4491 66.89C31.2066 66.4816 31.3683 65.8283 31.7725 65.5833L41.6341 59.8666C41.7958 59.785 41.9575 59.785 42.1191 59.785C42.4425 59.785 42.7658 59.9483 42.9275 60.275L43.5741 61.4183C43.8166 61.8266 43.655 62.48 43.2508 62.725ZM59.4983 55.5383C61.3575 57.0083 62.8933 58.8866 63.9441 61.0916L59.0941 58.2333C59.2558 57.2533 59.3366 56.355 59.4983 55.5383ZM56.1841 53.415C56.3458 53.4966 56.4266 53.4966 56.5075 53.5783C56.3458 54.3133 56.1841 55.4566 56.0225 56.6C55.8608 56.5183 55.6991 56.5183 55.4566 56.5183C55.6991 55.2116 55.9416 54.15 56.1841 53.415ZM65.5608 66.89L64.9141 68.0333C64.7525 68.2783 64.5908 68.4416 64.3483 68.4416C64.1058 68.5233 63.8633 68.4416 63.6208 68.36L53.7591 62.6433C53.355 62.3983 53.1933 61.8266 53.4358 61.3366L54.0825 60.1933C54.2441 59.8666 54.5675 59.7033 54.8908 59.7033C55.0525 59.7033 55.2141 59.7033 55.3758 59.8666L65.2375 65.5833C65.3183 65.665 65.3991 65.7466 65.48 65.8283C65.48 65.91 65.48 65.9916 65.48 65.9916H65.5608C65.7225 66.2366 65.7225 66.5633 65.5608 66.89Z" fill="black" stroke="white" mask="url(#path-3-inside-1_409_6520)"/>
</svg>
