<svg width="58" height="76" viewBox="0 0 58 76" fill="none" xmlns="http://www.w3.org/2000/svg">
<path d="M29.0964 0.562327L29.111 0.566968L29.1259 0.56981L56.0516 5.67909C56.8069 5.84117 57.4406 6.47779 57.4406 7.22694C57.4406 7.99271 56.8818 8.61662 56.1451 8.77478L45.3017 10.8361L45.0984 10.8748V11.0817V14.4883C45.0984 15.1636 44.6308 15.7117 43.9589 15.9548C43.6873 16.0414 43.4377 16.1068 43.1813 16.1738L43.179 16.1744C42.9232 16.2413 42.6606 16.3099 42.3737 16.4016L42.0635 16.5008L42.2394 16.7748C43.7108 19.0673 44.5373 21.7101 44.5373 24.5286C44.5373 32.8075 37.5532 39.5184 28.892 39.5184C20.2309 39.5184 13.2467 32.8075 13.2467 24.5286C13.2467 21.6197 14.0737 18.9769 15.5447 16.6852L15.7142 16.4211L15.4189 16.3149C15.0578 16.1851 14.7873 16.0554 14.5942 15.9574C14.5553 15.9377 14.517 15.9178 14.4811 15.8993C14.4323 15.8741 14.3881 15.8512 14.3531 15.8341C14.3213 15.8184 14.2879 15.8028 14.2563 15.7908C14.2446 15.7863 14.2269 15.7797 14.205 15.774C13.6438 15.4523 13.3402 14.9153 13.3402 14.3986V11.1714V10.9601L13.132 10.9249L11.5424 10.6559L11.2507 10.6066V10.9024V20.136C11.2507 20.9742 10.5312 21.6789 9.63068 21.6789C8.73021 21.6789 8.01065 20.9742 8.01065 20.136V10.1853V9.97748L7.80637 9.93947L1.54506 8.77469C0.808529 8.61637 0.25 7.99256 0.25 7.22694C0.25 6.46117 0.80875 5.83726 1.54549 5.67909L28.4711 0.56981L28.4861 0.566968L28.5006 0.562327C28.6253 0.522478 28.7155 0.506958 28.7985 0.506958C28.8816 0.506958 28.9718 0.522478 29.0964 0.562327ZM19.0369 17.4719L18.8794 17.4356L18.7817 17.5644C17.2549 19.5772 16.3933 21.9605 16.3933 24.5286C16.3933 31.131 21.9384 36.4326 28.7985 36.4326C35.6587 36.4326 41.2038 31.131 41.2038 24.5286C41.2038 21.8719 40.3429 19.4885 38.8154 17.4748L38.7197 17.3486L38.5647 17.3812C34.7458 18.185 31.3036 18.5413 28.331 18.5413C24.521 18.5413 21.3613 18.0067 19.0369 17.4719ZM41.5858 13.3833L41.7648 13.3303V13.1436V11.7092V11.4054L41.4667 11.4639L29.1484 13.8797H29.1483H29.1478H29.1471H29.1465H29.1459H29.1452H29.1446H29.1439H29.1433H29.1427H29.142H29.1414H29.1407H29.1401H29.1394H29.1388H29.1381H29.1375H29.1368H29.1361H29.1355H29.1348H29.1341H29.1335H29.1328H29.1321H29.1315H29.1308H29.1301H29.1294H29.1288H29.1281H29.1274H29.1267H29.126H29.1253H29.1247H29.124H29.1233H29.1226H29.1219H29.1212H29.1205H29.1198H29.1191H29.1184H29.1177H29.117H29.1163H29.1156H29.1149H29.1142H29.1135H29.1128H29.112H29.1113H29.1106H29.1099H29.1092H29.1085H29.1077H29.107H29.1063H29.1056H29.1048H29.1041H29.1034H29.1027H29.1019H29.1012H29.1005H29.0997H29.099H29.0983H29.0975H29.0968H29.096H29.0953H29.0946H29.0938H29.0931H29.0923H29.0916H29.0908H29.0901H29.0893H29.0886H29.0878H29.0871H29.0863H29.0856H29.0848H29.084H29.0833H29.0825H29.0818H29.081H29.0802H29.0795H29.0787H29.0779H29.0772H29.0764H29.0756H29.0749H29.0741H29.0733H29.0725H29.0718H29.071H29.0702H29.0695H29.0687H29.0679H29.0671H29.0663H29.0656H29.0648H29.064H29.0632H29.0624H29.0616H29.0609H29.0601H29.0593H29.0585H29.0577H29.0569H29.0561H29.0553H29.0545H29.0538H29.053H29.0522H29.0514H29.0506H29.0498H29.049H29.0482H29.0474H29.0466H29.0458H29.045H29.0442H29.0434H29.0426H29.0418H29.041H29.0402H29.0394H29.0386H29.0378H29.037H29.0362H29.0354H29.0346H29.0338H29.0329H29.0321H29.0313H29.0305H29.0297H29.0289H29.0281H29.0273H29.0265H29.0257H29.0248H29.024H29.0232H29.0224H29.0216H29.0208H29.02H29.0191H29.0183H29.0175H29.0167H29.0159H29.0151H29.0143H29.0134H29.0126H29.0118H29.011H29.0102H29.0093H29.0085H29.0077H29.0069H29.0061H29.0053H29.0044H29.0036H29.0028H29.002H29.0012H29.0003H28.9995H28.9987H28.9979H28.9971H28.9962H28.9954H28.9946H28.9938H28.9929H28.9921H28.9913H28.9905H28.9897H28.9888H28.988H28.9872H28.9864H28.9855H28.9847H28.9839H28.9831H28.9823H28.9814H28.9806H28.9798H28.979H28.9782H28.9773H28.9765H28.9757H28.9749H28.974H28.9732H28.9724H28.9716H28.9708H28.9699H28.9691H28.9683H28.9675H28.9667H28.9658H28.965H28.9642H28.9634H28.9626H28.9618H28.9609H28.9601H28.9593H28.9585H28.9577H28.9568H28.956H28.9552H28.9544H28.9536H28.9528H28.952H28.9511H28.9503H28.9495H28.9487H28.9479H28.9471H28.9463H28.9454H28.9446H28.9438H28.943H28.9422H28.9414H28.9406H28.9398H28.939H28.9382H28.9374H28.9365H28.9357H28.9349H28.9341H28.9333H28.9325H28.9317H28.9309H28.9301H28.9293H28.9285H28.9277H28.9269H28.9261H28.9253H28.9245H28.9237H28.9229H28.9221H28.9213H28.9205H28.9197H28.9189H28.9181H28.9173H28.9166H28.9158H28.915H28.9142H28.9134H28.9126H28.9118H28.911H28.9102H28.9095H28.9087H28.9079H28.9071H28.9063H28.9055H28.9048H28.904H28.9032H28.9024H28.9017H28.9009H28.9001H28.8993H28.8986H28.8978H28.897H28.8962H28.8955H28.8947H28.8939H28.8932H28.8924H28.8916H28.8909H28.8901H28.8893H28.8886H28.8878H28.8871H28.8863H28.8855H28.8848H28.884H28.8833H28.8825H28.8818H28.881H28.8803H28.8795H28.8788H28.878H28.8773H28.8765H28.8758H28.8751H28.8743H28.8736H28.8728H28.8721H28.8714H28.8706H28.8699H28.8692H28.8684H28.8677H28.867H28.8663H28.8655H28.8648H28.8641H28.8634H28.8626H28.8619H28.8612H28.8605H28.8598H28.8591H28.8583H28.8576H28.8569H28.8562H28.8555H28.8548H28.8541H28.8534H28.8527H28.852H28.8513H28.8506H28.8499H28.8492H28.8485H28.8478H28.8471H28.8464H28.8458H28.8451H28.8444H28.8437H28.843H28.8423H28.8417H28.841H28.8403H28.8396H28.839H28.8383H28.8376H28.837H28.8363H28.8356H28.835H28.8343H28.8337H28.833H28.8323H28.8317H28.831H28.8304H28.8297H28.8291H28.8284H28.8278H28.8272H28.8265H28.8259H28.8252H28.8246H28.824H28.8233H28.8227H28.8221H28.8215H28.8208H28.8202H28.8196H28.819H28.8184H28.8177H28.8171H28.8165H28.8159H28.8153H28.8147H28.8141H28.8135H28.8129H28.8123H28.8117H28.8111H28.8105H28.8099H28.8093H28.8087H28.8082H28.8076H28.807H28.8064H28.8058H28.8053H28.8047H28.8041H28.8036H28.803H28.8024H28.8019H28.8013H28.8008H28.8002H28.7996H28.7991H28.7985H28.798H28.7974H28.7969H28.7963H28.7958H28.7952H28.7947H28.7941H28.7935H28.793H28.7924H28.7918H28.7912H28.7907H28.7901H28.7895H28.7889H28.7883H28.7878H28.7872H28.7866H28.786H28.7854H28.7848H28.7842H28.7836H28.783H28.7824H28.7818H28.7812H28.7806H28.78H28.7794H28.7787H28.7781H28.7775H28.7769H28.7763H28.7756H28.775H28.7744H28.7738H28.7731H28.7725H28.7719H28.7712H28.7706H28.7699H28.7693H28.7687H28.768H28.7674H28.7667H28.7661H28.7654H28.7648H28.7641H28.7634H28.7628H28.7621H28.7615H28.7608H28.7601H28.7595H28.7588H28.7581H28.7575H28.7568H28.7561H28.7554H28.7548H28.7541H28.7534H28.7527H28.752H28.7513H28.7507H28.75H28.7493H28.7486H28.7479H28.7472H28.7465H28.7458H28.7451H28.7444H28.7437H28.743H28.7423H28.7416H28.7409H28.7402H28.7395H28.7387H28.738H28.7373H28.7366H28.7359H28.7352H28.7345H28.7337H28.733H28.7323H28.7316H28.7308H28.7301H28.7294H28.7287H28.7279H28.7272H28.7265H28.7257H28.725H28.7242H28.7235H28.7228H28.722H28.7213H28.7205H28.7198H28.7191H28.7183H28.7176H28.7168H28.7161H28.7153H28.7146H28.7138H28.7131H28.7123H28.7115H28.7108H28.71H28.7093H28.7085H28.7078H28.707H28.7062H28.7055H28.7047H28.7039H28.7032H28.7024H28.7016H28.7009H28.7001H28.6993H28.6985H28.6978H28.697H28.6962H28.6954H28.6947H28.6939H28.6931H28.6923H28.6915H28.6908H28.69H28.6892H28.6884H28.6876H28.6868H28.6861H28.6853H28.6845H28.6837H28.6829H28.6821H28.6813H28.6805H28.6797H28.679H28.6782H28.6774H28.6766H28.6758H28.675H28.6742H28.6734H28.6726H28.6718H28.671H28.6702H28.6694H28.6686H28.6678H28.667H28.6662H28.6654H28.6646H28.6638H28.663H28.6622H28.6614H28.6605H28.6597H28.6589H28.6581H28.6573H28.6565H28.6557H28.6549H28.6541H28.6533H28.6525H28.6516H28.6508H28.65H28.6492H28.6484H28.6476H28.6468H28.646H28.6451H28.6443H28.6435H28.6427H28.6419H28.6411H28.6402H28.6394H28.6386H28.6378H28.637H28.6362H28.6353H28.6345H28.6337H28.6329H28.6321H28.6312H28.6304H28.6296H28.6288H28.628H28.6271H28.6263H28.6255H28.6247H28.6239H28.623H28.6222H28.6214H28.6206H28.6198H28.6189H28.6181H28.6173H28.6165H28.6157H28.6148H28.614H28.6132H28.6124H28.6115H28.6107H28.6099H28.6091H28.6083H28.6074H28.6066H28.6058H28.605H28.6041H28.6033H28.6025H28.6017H28.6009H28.6H28.5992H28.5984H28.5976H28.5968H28.5959H28.5951H28.5943H28.5935H28.5927H28.5918H28.591H28.5902H28.5894H28.5886H28.5877H28.5869H28.5861H28.5853H28.5845H28.5837H28.5828H28.582H28.5812H28.5804H28.5796H28.5788H28.5779H28.5771H28.5763H28.5755H28.5747H28.5739H28.5731H28.5723H28.5714H28.5706H28.5698H28.569H28.5682H28.5674H28.5666H28.5658H28.565H28.5641H28.5633H28.5625H28.5617H28.5609H28.5601H28.5593H28.5585H28.5577H28.5569H28.5561H28.5553H28.5545H28.5537H28.5529H28.5521H28.5513H28.5505H28.5497H28.5489H28.5481H28.5473H28.5465H28.5457H28.5449H28.5441H28.5433H28.5425H28.5418H28.541H28.5402H28.5394H28.5386H28.5378H28.537H28.5362H28.5354H28.5347H28.5339H28.5331H28.5323H28.5315H28.5308H28.53H28.5292H28.5284H28.5276H28.5269H28.5261H28.5253H28.5245H28.5238H28.523H28.5222H28.5215H28.5207H28.5199H28.5192H28.5184H28.5176H28.5169H28.5161H28.5153H28.5146H28.5138H28.5131H28.5123H28.5115H28.5108H28.51H28.5093H28.5085H28.5078H28.507H28.5063H28.5055H28.5048H28.504H28.5033H28.5025H28.5018H28.5011H28.5003H28.4996H28.4988H28.4981H28.4974H28.4966H28.4959H28.4952H28.4944H28.4937H28.493H28.4922H28.4915H28.4908H28.4901H28.4894H28.4886H28.4879H28.4872H28.4865H28.4858H28.485H28.4843H28.4836H28.4829H28.4822H28.4815H28.4808H28.4801H28.4794H28.4787H28.478H28.4773H28.4766H28.4759H28.4752H28.4745H28.4738H28.4731H28.4724H28.4717H28.4711H28.4704H28.4697H28.469H28.4683H28.4677H28.467H28.4663H28.4656H28.465H28.4643H28.4636H28.463H28.4623H28.4616H28.461H28.4603H28.4596H28.459H28.4583H28.4577H28.457H28.4564H28.4557H28.4551H28.4544H28.4538H28.4531H28.4525H28.4519H28.4512H28.4506H28.45H28.4493H28.4487H28.4485L16.8778 11.6431L16.5803 11.5856V11.8885V13.2332V13.4022L16.7371 13.4652C19.6797 14.6483 28.8075 17.1668 41.5858 13.3833ZM28.7517 10.8791L28.7992 10.8881L28.8466 10.8788L46.2379 7.47227L46.2367 6.98136L28.8454 3.66446L28.7979 3.65541L28.7505 3.6647L11.3592 7.07125L11.3604 7.56216L28.7517 10.8791Z" fill="black" stroke="#D8E9E3" stroke-width="0.5"/>
<path d="M28.6143 51.7699L28.7992 51.973L28.984 51.7699L38.6089 41.1981C38.9532 40.8699 39.36 40.6459 39.8324 40.6459C47.9325 40.6459 54.5427 46.9983 54.5427 54.7392V66.7518C54.5427 71.5313 50.4604 75.3768 45.4425 75.3768H12.1558C7.14129 75.3768 3.05566 71.4448 3.05566 66.6622V54.7392C3.05566 46.9983 9.66584 40.6459 17.7659 40.6459C18.2383 40.6459 18.6451 40.8699 18.9895 41.1981L28.6143 51.7699ZM17.1097 43.8139L17.0274 43.723L16.9052 43.7325C10.9886 44.1899 6.29574 48.9504 6.29574 54.7392V66.6622C6.29574 69.7684 8.94224 72.2909 12.1558 72.2909H45.4425C48.6505 72.2909 51.3026 69.8633 51.3026 66.7518V54.7392C51.3026 48.8595 46.6083 44.1898 40.6932 43.7325L40.5709 43.723L40.4886 43.8139L30.0164 55.3782L30.0161 55.378L30.0075 55.3886C29.7366 55.7226 29.3 55.9012 28.8342 55.9012C28.3694 55.9012 27.9019 55.7227 27.5809 55.3771C27.5806 55.3768 27.5803 55.3764 27.58 55.3761L17.1097 43.8139Z" fill="black" stroke="#D8E9E3" stroke-width="0.5"/>
</svg>
