<svg width="75" height="74" viewBox="0 0 75 74" fill="none" xmlns="http://www.w3.org/2000/svg">
<path d="M38.1528 14.151C38.1528 21.8373 31.9385 28.0516 24.2522 28.0516C16.5658 28.0516 10.3516 21.8373 10.3516 14.151C10.3516 6.46459 16.5658 0.250366 24.2522 0.250366C31.9385 0.250366 38.1528 6.46459 38.1528 14.151ZM35.3232 14.2342C35.3232 8.10294 30.3834 3.16316 24.2522 3.16316C18.1209 3.16316 13.1811 8.10294 13.1811 14.2342C13.1811 20.3655 18.1209 25.3053 24.2522 25.3053C30.3834 25.3053 35.3232 20.3655 35.3232 14.2342Z" fill="black" stroke="white" stroke-width="0.5"/>
<path d="M44.8111 42.2027V42.8227L45.2412 42.3761C47.3644 40.1713 50.2981 38.7069 53.6348 38.7069H63.124C69.3952 38.7069 74.5283 43.8393 74.6107 50.0287V54.855C74.6107 59.295 70.9768 62.9289 66.5368 62.9289H58.5458H58.2958V63.1789V67.0911C58.2958 67.7295 57.8716 68.2889 57.243 68.4286L57.243 68.4282L57.2301 68.4318L38.4182 73.6759L38.3549 73.6935L38.3158 73.7326C38.3104 73.7345 38.2975 73.7385 38.273 73.742C38.2212 73.7494 38.157 73.7499 38.0691 73.7499H38.0686H38.0681H38.0676H38.0671H38.0667H38.0662H38.0657H38.0652H38.0647H38.0642H38.0637H38.0632H38.0628H38.0623H38.0618H38.0613H38.0608H38.0603H38.0598H38.0593H38.0588H38.0584H38.0579H38.0574H38.0569H38.0564H38.0559H38.0554H38.0549H38.0545H38.054H38.0535H38.053H38.0525H38.052H38.0515H38.051H38.0506H38.0501H38.0496H38.0491H38.0486H38.0481H38.0476H38.0471H38.0467H38.0462H38.0457H38.0452H38.0447H38.0442H38.0437H38.0432H38.0428H38.0423H38.0418H38.0413H38.0408H38.0403H38.0398H38.0393H38.0389H38.0384H38.0379H38.0374H38.0369H38.0364H38.0359H38.0354H38.035H38.0345H38.034H38.0335H38.033H38.0325H38.032H38.0315H38.031H38.0306H38.0301H38.0296H38.0291H38.0286H38.0281H38.0276H38.0271H38.0267H38.0262H38.0257H38.0252H38.0247H38.0242H38.0237H38.0232H38.0228H38.0223H38.0218H38.0213H38.0208H38.0203H38.0198H38.0193H38.0189H38.0184H38.0179H38.0174H38.0169H38.0164H38.0159H38.0154H38.015H38.0145H38.014H38.0135H38.013H38.0125H38.012H38.0115H38.0111H38.0106H38.0101H38.0096H38.0091H38.0086H38.0081H38.0076H38.0071H38.0067H38.0062H38.0057H38.0052H38.0047H38.0042H38.0037H38.0032H38.0028H38.0023H38.0018H38.0013H38.0008H38.0003H37.9998H37.9993H37.9989H37.9984H37.9979H37.9974H37.9969H37.9964H37.9959H37.9954H37.995H37.9945H37.994H37.9935H37.993H37.9925H37.992H37.9915H37.9911H37.9906H37.9901H37.9896H37.9891H37.9886H37.9881H37.9876H37.9872H37.9867H37.9862H37.9857H37.9852H37.9847H37.9842H37.9837H37.9832H37.9828H37.9823H37.9818H37.9813H37.9808H37.9803H37.9798H37.9794H37.9789H37.9784H37.9779H37.9774H37.9769H37.9764H37.9759H37.9754H37.975H37.9745H37.974H37.9735H37.973H37.9725H37.972H37.9715H37.9711H37.9706H37.9701H37.9696H37.9691H37.9686H37.9681H37.9676H37.9672H37.9667H37.9662H37.9657H37.9652H37.9647H37.9642H37.9637H37.9633H37.9628H37.9623H37.9618H37.9613H37.9608H37.9603H37.9598H37.9594H37.9589H37.9584H37.9579H37.9574H37.9569H37.9564H37.9559H37.9555H37.955H37.9545H37.954H37.9535H37.953H37.9525H37.952H37.9515H37.9511H37.9506H37.9501H37.9496H37.9491H37.9486H37.9481H37.9476H37.9472H37.9467H37.9462H37.9457H37.9452H37.9447H37.9442H37.9437H37.9433H37.9428H37.9423H37.9418H37.9413H37.9408H37.9403H37.9398H37.9394H37.9389H37.9384H37.9379H37.9374H37.9369H37.9364H37.9359H37.9355H37.935H37.9345H37.934H37.9335H37.933H37.9325H37.932H37.9316H37.9311H37.9306H37.9301H37.9296H37.9291H37.9286H37.9281H37.9277H37.9272H37.9267H37.9262H37.9257H37.9252H37.9247H37.9242H37.9237H37.9233H37.9228H37.9223H37.9218H37.9213H37.9208H37.9203H37.9198H37.9194H37.9189H37.9184H37.9179H37.9174H37.9169H37.9164H37.9159H37.9155H37.915H37.9145H37.914H37.9135H37.913H37.9125H37.912H37.9116H37.9111H37.9106H37.9101H37.9096H37.9091H37.9086H37.9081H37.9077H37.9072H37.9067H37.9062H37.9057H37.9052H37.9047H37.9042H37.9038H37.9033H37.9028H37.9023H37.9018H37.9013H37.9008H37.9003H37.8998H37.8994H37.8989H37.8984H37.8979H37.8974H37.8969H37.8964H37.8959H37.8955H37.895H37.8945H37.894H37.8935H37.893H37.8925H37.892H37.8916H37.8911H37.8906H37.8901H37.8896H37.8891H37.8886H37.8881H37.8877H37.8872H37.8867H37.8862H37.8857H37.8852H37.8847H37.8842H37.8838H37.8833H37.8828H37.8823H37.8818H37.8813H37.8808H37.8803H37.8799H37.8794H37.8789H37.8784H37.8779H37.8774H37.8769H37.8764H37.8759H37.8755H37.875H37.8745H37.874H37.8735H37.873H37.8725H37.872H37.8716H37.8711H37.8706H37.8701H37.8696H37.8691H37.8686H37.8681H37.8677H37.8672H37.8667H37.8662H37.8657H37.8652H37.8647H37.8642H37.8638H37.8633H37.8628H37.8623H37.8618H37.8613H37.8608H37.8603H37.8599H37.8594H37.8589H37.8584H37.8579H37.8574H37.8569H37.8564H37.856H37.8555H37.855H37.8545H37.854H37.8535H37.853H37.8525H37.8521H37.8516H37.8511H37.8506H37.8501H37.8496H37.8491H37.8486H37.8482H37.8477H37.8472H37.8467H37.8462H37.8457H37.8452H37.8447H37.8442H37.8438H37.8433H37.8428H37.8423H37.8418H37.8413H37.8408H37.8403H37.8399H37.8394H37.8389H37.8384H37.8379H37.8374H37.8369H37.8364H37.836H37.8355H37.835H37.8345H37.834H37.8335H37.833H37.8325H37.8321H37.8316H37.8311H37.8306H37.8301H37.8296H37.8291H37.8286H37.8282H37.8277H37.8272H37.8267H37.8262H37.8257H37.8252H37.8247H37.8243H37.8238H37.8233H37.8228H37.8223H37.8218H37.8213H37.8208H37.8204H37.8199H37.8194H37.8189H37.8184H37.8179H37.8174H37.8169H37.8164H37.816H37.8155H37.815H37.8145H37.814H37.8135H37.813H37.8125H37.8121H37.8116H37.8111H37.8106H37.8101H37.8096H37.8091H37.8086H37.8082H37.8077H37.8072H37.8067H37.8062H37.8057H37.8052H37.8047H37.8043H37.8038H37.8033H37.8028H37.8023H37.8018H37.8013H37.8008H37.8004H37.7999H37.7994H37.7989H37.7984H37.7979H37.7974H37.7969H37.7965H37.796H37.7955H37.795H37.7945H37.794H37.7935H37.793H37.7925H37.7921H37.7916H37.7911H37.7906H37.7901H37.7896H37.7891H37.7886H37.7882H37.7877H37.7872H37.7867H37.7862H37.7857H37.7852H37.7847H37.7843H37.7838H37.7833H37.7828H37.7823H37.7818H37.7813H37.7808H37.7804H37.7799H37.7794H37.7789H37.7784H37.7779H37.7774H37.7769H37.7765H37.776H37.7755H37.775H37.7745H37.774H37.7735H37.773H37.7726H37.7721H37.7716H37.7711H37.7706H37.7701H37.7696H37.7691H37.7687H37.7682H37.7677H37.7672H37.7667H37.7662H37.7657H37.7652H37.7647H37.7643H37.7638H37.7633H37.7628H37.7623H37.7618H37.7613H37.7608H37.7604H37.7599H37.7594H37.7589H37.7584H37.7579H37.7574H37.7569H37.7565H37.756H37.7555H37.755H37.7545H37.754H37.7535H37.753H37.7526H37.7521H37.7516H37.7511H37.7506H37.7501H37.7496H37.7491H37.7487H37.7482H37.7477H37.7472H37.7467H37.7462H37.7457H37.7452H37.7448H37.7443H37.7438H37.7433H37.7428H37.7423H37.7418H37.7413H37.7408H37.7404H37.7399H37.7394H37.7389H37.7384H37.7379H37.7374H37.7369H37.7365H37.736H37.7355H37.735H37.7345H37.734H37.7335H37.733H37.7326H37.7321H37.7316H37.7311H37.7306H37.7301H37.7296H37.7291H37.7287H37.7282H37.7277H37.7272H37.7267H37.7262H37.7257H37.7252H37.7248H37.7243H37.7238H37.7233H37.7228H37.7223H37.7218H37.7213H37.7209H37.7204H37.7199H37.7194H37.7189H37.7184H37.7179H37.7174H37.7169H37.7165H37.716H37.7155H37.715H37.7145H37.714H37.7135H37.7131H37.7126H37.7121H37.7116H37.7111H37.7106H37.7101H37.7096H37.7091H37.7087H37.7082H37.7077H37.7072H37.7067H37.7062H37.7057H37.7052H37.7048H37.7043H37.7038H37.7033H37.7028H37.7023H37.7018H37.7013H37.7009H37.7004H37.6999H37.6994H37.6989H37.6984H37.6979H37.6974H37.697H37.6965H37.696H37.6955H37.695H37.6945H37.694H37.6935H37.6931H37.6926H37.6921H37.6916H37.6911H37.6906H37.6901H37.6896H37.6892H37.6887H37.6882H37.6877H37.6872H37.6867H37.6862H37.6857H37.6852H37.6848H37.6843H37.6838H37.6833H37.6828H37.6823H37.6818H37.6813H37.6809H37.6804H37.6799H37.6794H37.6789H37.6784H37.6779H37.6774H37.677H37.6765H37.676H37.6755H37.675H37.6745H37.674H37.6735H37.6731H37.6726H37.6721H37.6716H37.6711H37.6706H37.6701H37.6696H37.6692H37.6687H37.6682H37.6677H37.6672H37.6667H37.6662H37.6657H37.6653H37.6648H37.6643H37.6638H37.6633H37.6628H37.6623H37.6618H37.6614H37.6609H37.6604H37.6599H37.6594H37.6589H37.6584H37.6579H37.6574H37.657H37.6565H37.656H37.6555H37.655H37.6545H37.654H37.6535H37.6531H37.6526H37.6521H37.6516H37.6511H37.6506H37.6501H37.6496H37.6492H37.6487H37.6482H37.6477H37.6472H37.6467H37.6462H37.6457H37.6453H37.6448H37.6443H37.6438H37.6433H37.6428H37.6423H37.6418H37.6414H37.6409H37.6404H37.6399H37.6394H37.6389H37.6384H37.6379H37.6375H37.637H37.6365H37.636H37.6355H37.635H37.6345H37.634H37.6335H37.6331H37.6326H37.6321H37.6316H37.6311H37.6306H37.6301H37.6296H37.6292H37.6287H37.6282H37.6277H37.6272H37.6267H37.6262H37.6257H37.6253H37.6248H37.6243H37.6238H37.6233H37.6228H37.6223H37.6218H37.6214H37.6209H37.6204H37.6199H37.6194H37.6189H37.6184H37.6179H37.6175H37.617H37.6165H37.616H37.6155H37.615H37.6145H37.614H37.6136H37.6131H37.6126H37.6121H37.6116H37.6111H37.6106H37.6101H37.6096H37.6092H37.6087H37.6082H37.6077H37.6072H37.6067H37.6062H37.6057H37.6053H37.6048H37.6043H37.6038H37.6033H37.6028H37.6023H37.6018H37.6014H37.6009H37.6004H37.5999H37.5994H37.5989H37.5984H37.5979H37.5975H37.597H37.5965H37.596H37.5955H37.595H37.5945H37.594H37.5936H37.5931H37.5926H37.5921H37.5916H37.5911H37.5906H37.5901H37.5897H37.5892H37.5887H37.5882H37.5877H37.5872H37.5867H37.5862H37.5858H37.5853H37.5848H37.5843H37.5838H37.5833H37.5828H37.5823H37.5818H37.5814H37.5809H37.5804H37.5799H37.5794H37.5789H37.5784H37.5779H37.5775H37.577C37.5741 73.7494 37.5675 73.748 37.556 73.745C37.5397 73.7407 37.5242 73.7362 37.5045 73.7304C37.4922 73.7268 37.4783 73.7227 37.4615 73.7179C37.3941 73.6987 37.2972 73.6728 37.191 73.6676L18.4102 68.4323C18.4098 68.4322 18.4095 68.4321 18.4092 68.432C17.9045 68.2874 17.4905 67.8568 17.4236 67.3887L17.393 67.174H17.1761H10.85C5.4943 67.174 1.11133 62.7911 1.11133 57.4354V43.2848C1.11133 35.7639 7.24328 29.5507 14.8455 29.5507H34.2401C40.0952 29.5507 44.8111 34.2666 44.8111 40.1217V42.2027ZM35.8376 70.4949L36.1549 70.5836V70.2542V51.9416V51.7519L35.9722 51.7009L20.4898 47.3724L20.1725 47.2837V47.6132V65.9257V66.1154L20.3551 66.1665L35.8376 70.4949ZM37.7524 49.2691L37.8185 49.2875L37.8847 49.2696L41.8802 48.1875L42.0648 48.1375V47.9462V40.2049C42.0648 35.9049 38.6234 32.4635 34.3233 32.4635H14.9287C8.96518 32.4635 4.02412 37.3187 4.02412 43.368V57.5186C4.02412 61.3192 7.13265 64.4277 10.9332 64.4277H17.1761H17.4261V64.1777V56.6862V56.4362H17.1761H11.0997C10.3221 56.4362 9.68493 55.799 9.68493 55.0215V48.6121C9.68493 47.8345 10.3221 47.1973 11.0997 47.1973C11.8773 47.1973 12.5145 47.8345 12.5145 48.6121V53.3567V53.6067H12.7645H17.1761H17.4261V53.3567V45.449C17.4261 45.0362 17.6318 44.6118 17.9854 44.3228C18.3714 44.0943 18.7851 43.9736 19.1781 44.1046L19.178 44.1049L19.1901 44.1083L37.7524 49.2691ZM55.2004 66.1665L55.383 66.1154V65.9257V47.6132V47.2837L55.0657 47.3724L39.5833 51.7009L39.4006 51.7519V51.9416V70.2542V70.5836L39.7179 70.4949L55.2004 66.1665ZM58.2126 59.9326V60.1826H58.4626H66.4535C69.3385 60.1826 71.6979 57.8232 71.6979 54.9382V50.1104C71.6979 45.3942 67.8402 41.5365 63.124 41.5365H53.6348C50.2029 41.5365 47.2032 43.5955 45.8327 46.5936L45.6081 47.0849L46.1279 46.9382L56.4495 44.0248L56.4496 44.0251L56.4607 44.0214C56.8812 43.8812 57.2918 43.9502 57.6405 44.2292C58.002 44.5183 58.2126 44.9479 58.2126 45.3658V53.107V53.357H58.4626H64.872H65.122V53.107V50.1104C65.122 49.3328 65.7592 48.6956 66.5368 48.6956C67.3143 48.6956 67.9516 49.3328 67.9516 50.1104V54.7717C67.9516 55.5493 67.3143 56.1865 66.5368 56.1865H58.4626H58.2126V56.4365V59.9326Z" fill="black" stroke="white" stroke-width="0.5"/>
<path d="M68.7843 26.0545C68.7843 31.7431 64.1516 36.3758 58.4629 36.3758C52.8562 36.3758 48.1416 31.7419 48.1416 26.0545C48.1416 20.3658 52.7743 15.7332 58.4629 15.7332C64.1516 15.7332 68.7843 20.3658 68.7843 26.0545ZM65.9547 26.0545C65.9547 21.921 62.5965 18.5627 58.4629 18.5627C54.4145 18.5627 50.9712 21.9191 50.9712 26.0545C50.9712 30.188 54.3294 33.5463 58.4629 33.5463C62.5965 33.5463 65.9547 30.188 65.9547 26.0545Z" fill="black" stroke="white" stroke-width="0.5"/>
</svg>
