<svg width="105" height="97" viewBox="0 0 105 97" fill="none" xmlns="http://www.w3.org/2000/svg">
<path d="M58.9242 26.2708C58.9242 33.7146 52.3964 39.7625 44.4772 39.7625C36.4727 39.7625 30.0303 33.7155 30.0303 26.2708C30.0303 18.8261 36.4727 12.7792 44.4772 12.7792C52.4818 12.7792 58.9242 18.8261 58.9242 26.2708ZM55.9661 26.3517C55.9661 20.3768 50.7361 15.5933 44.4772 15.5933C38.1307 15.5933 32.9884 20.378 32.9884 26.3517C32.9884 32.3253 38.1307 37.11 44.4772 37.11C50.8238 37.11 55.9661 32.3253 55.9661 26.3517Z" fill="black" stroke="#E4F2F5" stroke-width="0.5"/>
<path d="M45.6677 55.1988L45.668 55.1989L45.671 55.1862C45.8133 54.5874 46.3907 54.1659 47.0704 54.1659H82.4296C82.871 54.1659 83.3254 54.373 83.6318 54.6548C83.9118 54.9885 83.9869 55.3877 83.9135 55.8067L77.8637 82.7156C77.8636 82.716 77.8635 82.7165 77.8634 82.7169C77.7163 83.3327 77.1245 83.8167 76.4644 83.8167H39.2897C38.8461 83.8167 38.3961 83.6078 38.0964 83.2575C37.8085 82.921 37.7399 82.53 37.8825 82.1298L37.8853 82.1222L37.8875 82.1144L39.6165 76.0519L39.7074 75.7334H39.3761H30.5579C24.974 75.7334 20.4336 71.4647 20.4336 66.2834V56.745C20.4336 49.3821 26.875 43.415 34.7077 43.415H54.8512C60.4731 43.415 64.6643 46.3532 65.5855 50.8124C65.7265 51.5413 65.2399 52.2388 64.3955 52.4586C63.5789 52.5925 62.8418 52.11 62.6152 51.3489C62.2071 49.4132 61.0315 48.1075 59.5656 47.2914C58.1034 46.4774 56.3513 46.1484 54.7647 46.1484H34.7077C28.4462 46.1484 23.3917 50.9343 23.3917 56.745V66.2834C23.3917 69.9937 26.632 73 30.5579 73H40.3271H40.514L40.5669 72.8208L42.6417 65.7883L42.7364 65.4675H42.402H32.9786C32.1496 65.4675 31.4995 64.8364 31.4995 64.1009V57.8767C31.4995 57.1412 32.1496 56.51 32.9786 56.51C33.8076 56.51 34.4577 57.1412 34.4577 57.8767V62.4842V62.7342H34.7077H43.2665H43.4536L43.5063 62.5547L45.6677 55.1988ZM75.0811 81.0834H75.2808L75.3249 80.8886L80.685 57.2044L80.7541 56.8992H80.4412H48.4536H48.266L48.2136 57.0794L43.1129 74.6202L43.1029 74.6544V74.69V74.7359L41.3835 80.7648L41.2926 81.0834H41.6239H75.0811Z" fill="black" stroke="#E4F2F5" stroke-width="0.5"/>
</svg>
