<svg width="33" height="20" viewBox="0 0 33 20" fill="none" xmlns="http://www.w3.org/2000/svg">
<path d="M32.381 6.26222L17.2586 0.03385H17.2225C17.1864 0.03385 17.1503 0 17.1503 0C17.1142 0 17.0781 0 17.0781 0C17.042 0 17.0059 0 17.0059 0C16.9698 0 16.9337 0 16.9337 0C16.8977 0 16.8616 0 16.8616 0C16.8255 0 16.7894 1.28623e-07 16.7894 0.03385H16.7533L1.59476 6.26222C1.34212 6.36377 1.16166 6.60072 1.16166 6.87152C1.16166 7.14232 1.34212 7.37927 1.59476 7.48082L2.38878 7.81932V10.4596C1.55867 10.7304 0.945107 11.4751 0.945107 12.3552C0.945107 12.8291 1.12557 13.2353 1.37821 13.5738C1.01729 13.9123 0.764648 14.3862 0.764648 14.9278V17.6358C0.764648 18.0081 1.08947 18.3128 1.48648 18.3128H4.69865C5.09566 18.3128 5.42048 18.0081 5.42048 17.6358V14.9278C5.42048 14.3862 5.20393 13.9123 4.80692 13.5738C5.09566 13.2353 5.24002 12.7952 5.24002 12.3552C5.24002 11.4751 4.62647 10.7304 3.79636 10.4596V8.42861L6.43105 9.51181V15.9433C6.43105 16.1464 6.50324 16.3156 6.6476 16.451C6.71979 16.4849 10.3651 19.5652 16.4646 19.5652C19.4963 19.5652 23.1415 18.7867 27.2199 16.5187C27.4364 16.3833 27.5808 16.1802 27.5808 15.9433V9.51181L32.4171 7.51467C32.6698 7.41312 32.8502 7.17617 32.8502 6.90537C32.8502 6.63457 32.6337 6.36377 32.381 6.26222ZM3.03843 11.7459C3.43544 11.7459 3.76026 12.0506 3.76026 12.4229C3.76026 12.7952 3.43544 13.0999 3.03843 13.0999C2.64142 13.0999 2.31659 12.7952 2.31659 12.4229C2.31659 12.0506 2.60533 11.7459 3.03843 11.7459ZM3.90463 14.9955V17.0265H2.13613V14.9955C2.13613 14.6908 2.42487 14.42 2.74969 14.42H3.32716C3.6159 14.4539 3.90463 14.6908 3.90463 14.9955ZM26.065 15.5371C15.9232 21.0208 9.17402 16.6203 7.83863 15.6386V10.1211L16.6811 13.743C16.7172 13.743 16.7172 13.743 16.7533 13.7769H16.7894C16.8616 13.7769 16.8977 13.8107 16.9698 13.8107C17.042 13.8107 17.0781 13.8107 17.1503 13.7769H17.1864C17.2225 13.7769 17.2225 13.7769 17.2586 13.743L26.065 10.1211V15.5371ZM16.9698 12.4229L3.6159 6.90537L16.9698 1.21859L30.2877 6.90537L16.9698 12.4229Z" fill="black"/>
</svg>
