<svg width="30" height="30" viewBox="0 0 30 30" fill="none" xmlns="http://www.w3.org/2000/svg">
<path d="M10.0964 21.6067H6.02261V19.6854C6.02261 19.3146 5.69815 19.0112 5.30159 19.0112C4.90503 19.0112 4.58057 19.3146 4.58057 19.6854V22.2809C4.58057 22.6517 4.90503 22.955 5.30159 22.955H10.0964C10.493 22.955 10.8174 22.6517 10.8174 22.2809C10.8174 21.9101 10.493 21.6067 10.0964 21.6067Z" fill="black"/>
<path d="M25.7429 24.0337C25.3463 24.0337 25.0219 24.3371 25.0219 24.7078V25.9213H20.9481C20.5515 25.9213 20.2271 26.2247 20.2271 26.5955C20.2271 26.9663 20.5515 27.2696 20.9481 27.2696H25.7429C26.1394 27.2696 26.4639 26.9663 26.4639 26.5955V24.7078C26.4639 24.3371 26.1394 24.0337 25.7429 24.0337Z" fill="black"/>
<path d="M11.034 11.4607C14.4228 11.4607 17.1627 8.89888 17.1627 5.73034C17.1627 2.5618 14.4228 0 11.034 0C7.64516 0 4.90527 2.5618 4.90527 5.73034C4.90527 8.89888 7.64516 11.4607 11.034 11.4607ZM11.034 1.38202C13.6297 1.38202 15.7206 3.33708 15.7206 5.76404C15.7206 8.19101 13.6297 10.1461 11.034 10.1461C8.43829 10.1461 6.34732 8.19101 6.34732 5.76404C6.34732 3.33708 8.43829 1.38202 11.034 1.38202Z" fill="black"/>
<path d="M24.265 19.9551H20.1551C20.1191 19.9551 20.083 19.9551 20.047 19.9551V18.6742C20.6959 19.0113 21.453 19.2135 22.2461 19.2135C24.7697 19.2135 26.8246 17.2922 26.8246 14.9326C26.8246 12.5731 24.7697 10.6517 22.2461 10.6517C20.5517 10.6517 19.0376 11.5281 18.2444 12.8427C17.4513 12.236 16.4419 11.8652 15.3243 11.8652H6.96041C3.60765 11.8652 0.903809 14.427 0.903809 17.5281V23.2585C0.903809 25.4832 2.85057 27.3034 5.22995 27.3034H13.9904C14.387 27.3034 14.7835 27.2697 15.1801 27.2023C15.4685 28.7866 16.9466 30 18.7131 30H25.707C27.6898 30 29.3121 28.4832 29.3121 26.6293V24.6742C29.3121 22.0787 27.0409 19.9551 24.265 19.9551ZM22.2461 12C23.9766 12 25.3826 13.3147 25.3826 14.9326C25.3826 16.5506 23.9766 17.8652 22.2461 17.8652C20.5157 17.8652 19.1097 16.5506 19.1097 14.9326C19.1457 13.3147 20.5517 12 22.2461 12ZM15.108 24.6742V25.854C14.7475 25.9551 14.387 25.9888 13.9904 25.9888H5.22995C3.6437 25.9888 2.34586 24.7753 2.34586 23.2922V17.5618C2.34586 15.1686 4.43683 13.2472 6.96041 13.2472H15.3603C16.2977 13.2472 17.1629 13.6517 17.7397 14.2585C17.7037 14.4944 17.6676 14.7304 17.6676 14.9663C17.6676 15.9102 17.9921 16.8203 18.5689 17.5281V20.2248C16.5861 20.7978 15.108 22.5843 15.108 24.6742ZM27.8701 26.6293C27.8701 27.7416 26.8967 28.6517 25.707 28.6517H18.7131C17.5234 28.6517 16.55 27.7416 16.55 26.6293V24.6742C16.55 22.8203 18.1723 21.3034 20.1551 21.3034H24.265C26.2478 21.3034 27.8701 22.8203 27.8701 24.6742V26.6293Z" fill="black"/>
</svg>
