<svg width="34" height="30" viewBox="0 0 34 30" fill="none" xmlns="http://www.w3.org/2000/svg">
<path d="M11.1151 11.4736C14.5077 11.4736 17.2507 8.90889 17.2507 5.73678C17.2507 2.56468 14.5077 0 11.1151 0C7.72246 0 4.97949 2.56468 4.97949 5.73678C4.97949 8.90889 7.72246 11.4736 11.1151 11.4736ZM11.1151 1.38358C13.7137 1.38358 15.807 3.34083 15.807 5.77053C15.807 8.20022 13.7137 10.1575 11.1151 10.1575C8.51648 10.1575 6.42316 8.20022 6.42316 5.77053C6.42316 3.34083 8.51648 1.38358 11.1151 1.38358Z" fill="black"/>
<path d="M27.9703 15.5906H23.8558C22.376 15.5906 21.0767 16.198 20.1383 17.1091V16.2655C20.1383 13.8358 18.045 11.8785 15.4464 11.8785H7.03705C3.68051 11.8785 0.973633 14.4432 0.973633 17.5478V23.2846C0.973633 25.5118 2.92259 27.3341 5.30464 27.3341H8.04761C8.08371 27.5703 8.30026 27.7728 8.5529 27.8403L16.7096 29.9663C16.7818 29.9663 16.854 30 16.8901 30C16.9262 30 16.9623 30 16.9984 30C17.0345 30 17.0706 30 17.1066 30C17.1788 30 17.251 30 17.2871 29.9663L25.4438 27.8403C25.7687 27.7728 25.9852 27.5028 25.9852 27.1991V25.6131H29.45C31.4351 25.6131 33.0592 24.0945 33.0592 22.2385V20.2812C33.0231 17.7166 30.7493 15.5906 27.9703 15.5906ZM16.1683 28.4815L9.45519 26.7267V19.3026L16.1683 21.0574V28.4815ZM16.9984 19.8763L8.94991 17.7841C8.73336 17.7166 8.51681 17.7841 8.33635 17.8853C8.15589 18.0203 8.04761 18.2227 8.04761 18.4252V21.6311H6.13475V19.7076C6.13475 19.3364 5.80993 19.0326 5.41292 19.0326C5.01591 19.0326 4.69108 19.3364 4.69108 19.7076V22.306C4.69108 22.6772 5.01591 22.9809 5.41292 22.9809H8.04761V26.018H5.34073C3.7527 26.018 2.45339 24.8032 2.45339 23.3184V17.5816C2.45339 15.1856 4.54672 13.2621 7.07314 13.2621H15.4825C17.2871 13.2621 18.7308 14.6119 18.7308 16.2992V19.4376L16.9984 19.8763ZM24.5054 26.7267L17.7924 28.4815V21.0574L24.5054 19.3026V26.7267ZM31.5794 22.2722C31.5794 23.3859 30.605 24.297 29.4139 24.297H25.9491V22.8797H29.45C29.847 22.8797 30.1719 22.576 30.1719 22.2048V20.315C30.1719 19.9438 29.847 19.6401 29.45 19.6401C29.053 19.6401 28.7282 19.9438 28.7282 20.315V21.5298H25.9491V18.3915C25.9491 18.189 25.8408 17.9865 25.6604 17.8515C25.4799 17.7166 25.2634 17.6828 25.0468 17.7503L20.5714 18.9314C21.1489 17.7503 22.4121 16.9404 23.8558 16.9404H27.9703C29.9553 16.9404 31.5794 18.459 31.5794 20.315V22.2722Z" fill="black"/>
<path d="M25.9489 14.8482C28.4753 14.8482 30.5325 12.9247 30.5325 10.5624C30.5325 8.20024 28.4753 6.27673 25.9489 6.27673C23.4225 6.27673 21.3652 8.20024 21.3652 10.5624C21.3652 12.9247 23.4586 14.8482 25.9489 14.8482ZM25.9489 7.62656C27.6813 7.62656 29.0889 8.94265 29.0889 10.5624C29.0889 12.1822 27.6813 13.4983 25.9489 13.4983C24.2165 13.4983 22.8089 12.1822 22.8089 10.5624C22.8089 8.94265 24.2526 7.62656 25.9489 7.62656Z" fill="black"/>
</svg>
